<svg xmlns="http://www.w3.org/2000/svg" xmlns:xlink="http://www.w3.org/1999/xlink" viewBox="0 0 132.75 148.12"><defs><style>.cls-1{fill:url(#linear-gradient);}.cls-2{opacity:0.24;fill:url(#Dégradé_sans_nom_76);}.cls-3{fill:#fff;fill-rule:evenodd;}</style><linearGradient id="linear-gradient" y1="74.06" x2="132.75" y2="74.06" gradientUnits="userSpaceOnUse"><stop offset="0" stop-color="#1c75bc"/><stop offset="1" stop-color="#042c45"/></linearGradient><linearGradient id="Dégradé_sans_nom_76" x1="66.37" y1="74.06" x2="124.74" y2="74.06" gradientUnits="userSpaceOnUse"><stop offset="0" stop-color="#1c75bc"/><stop offset="0.15" stop-color="#1a6fb3"/><stop offset="0.39" stop-color="#15609a"/><stop offset="0.7" stop-color="#0d4872"/><stop offset="1" stop-color="#042c45"/></linearGradient></defs><title>Fichier 2</title><g id="Calque_2" data-name="Calque 2"><g id="Calque_1-2" data-name="Calque 1"><path class="cls-1" d="M124.41,30.92,74.72,2.23A16.69,16.69,0,0,0,58,2.23L8.34,30.92A16.68,16.68,0,0,0,0,45.37v57.38A16.68,16.68,0,0,0,8.34,117.2L58,145.89a16.69,16.69,0,0,0,16.68,0l49.69-28.69a16.67,16.67,0,0,0,8.34-14.45V45.37A16.68,16.68,0,0,0,124.41,30.92Z"/><path class="cls-2" d="M120.41,37.86,70.71,9.17A8.69,8.69,0,0,0,66.37,8V140.12A8.68,8.68,0,0,0,70.71,139l49.7-28.69a8.7,8.7,0,0,0,4.34-7.51V45.37A8.7,8.7,0,0,0,120.41,37.86Z"/><g id="_H_" data-name="&lt;H&gt;"><path class="cls-3" d="M74,94.43c-.4,2.22.21,3,1.56,3.6A11.56,11.56,0,0,0,74,94.43Z"/><path class="cls-3" d="M88.05,59.9c.09,0,2.7-6,2.7-6s3.74-7.39,8.19-9.46c4.67-1.42,8.82,2.91,9.16,6.88-9.2,1.8-17.69,20.13-20.92,28.94-1,2.78-3.9,8.41-2.57,12h0c1.07-.4,13.77-21.84,19.19-20.34,1.45.4,3.72,2.44,4,4l-4,14.33q-.14,6.45-.29,12.89c-11.53-.09-6.71-9-9.16-16.62l-2,1.72c-.55,1.45-6,12.93-6.88,13.47-1.76.65-3.44-.39-4.59-1.15A30.66,30.66,0,0,0,75.55,98,11.56,11.56,0,0,0,74,94.43c.42-2.29,14.11-34,14.2-34.79,0,0,0,0,0,0"/></g><path id="_Trait_" data-name="&lt;Trait&gt;" class="cls-3" d="M72.44,111.33l-10,2.49c-6.11,2-10,2.74-6.27,6.73,1,1.08,1.59,2.12,3.59,2.68a3.31,3.31,0,0,0,1.62.34c4.25-4.34,27.48-10,40.69-9.89C101.08,107,80.06,109.38,72.44,111.33Z"/><path id="_S_" data-name="&lt;S&gt;" class="cls-3" d="M66,90.24s0,0,0,0a8.49,8.49,0,0,0-1.54-3.59c-4.66-7.12-16.93-10.43-25.48-13-5-1.54-11-3.7-16.91-4-.09-.39-.19-.77-.29-1.15,5.91-11.93,21.51-19.62,34.1-24.93,4.41-1.86,10.39-5,16.33-3.44.55.28.55.28.58,1.15-3.51,27.74-14,29.74-17.89,27.05l-.74.44a12.27,12.27,0,0,0,5.73,9.18c5.42-.65,11.46-8.91,12.6-12.6C76.23,56.86,78,53,78.49,52v0c6.09-23.41-6.93-23.54-24.08-18C40.94,38.1,15.73,51,14.29,65.84,12.42,85,55.1,78,58.71,89.9c-4.08,5.53-18.1,8.5-26.65,5.73-1.72-2.43-.57-3.53.8-5.65l-.69-.82a7.12,7.12,0,0,0-3.84,2.74c-2.86,14.2,15.54,17.47,26.31,13,2.7-1.5,5.4-3.24,8.1-4.42C67.55,97.33,66.79,95.63,66,90.24Z"/><path id="_Point_" data-name="&lt;Point&gt;" class="cls-3" d="M113.09,93.24a11.73,11.73,0,0,1,5.42,1.27c-.56,2.68-2.47,5.7-3.83,8.65-2.84,0-4.53-.43-5.42-1.69-1.37-3,.43-6.38,2.23-8Z"/></g></g></svg>