<?xml version="1.0" encoding="utf-8"?>
<!-- Generator: Adobe Illustrator 21.0.0, SVG Export Plug-In . SVG Version: 6.00 Build 0)  -->
<svg version="1.1" id="Layer_1" xmlns="http://www.w3.org/2000/svg" xmlns:xlink="http://www.w3.org/1999/xlink" x="0px" y="0px"
	 viewBox="0 0 571.9 438" style="enable-background:new 0 0 571.9 438;" xml:space="preserve">
<style type="text/css">
	.st0{fill:#00A0FF;}
	.st1{fill:#23507A;}
	.st2{fill-rule:evenodd;clip-rule:evenodd;fill:#FFFFFF;}
</style>
<path class="st0" d="M360.8,433.4l72-140.1c22.5-43.8,28.7-86.2,18.2-125.8c-11.2-42.9-32.7-65.9-89.2-94.9L222.3,0.9
	c-4.2-2.2-9.5-0.4-11.6,3.7l-64.8,126.1l-6.9,12.2c-22.5,43.8-28.7,86.2-18.1,126.1c11,42.9,33,66,90,95.4L349.4,437
	C353.6,439.2,358.7,437.6,360.8,433.4L360.8,433.4z"/>
<path class="st1" d="M425.5,397.2l20.8-150.9c6.5-47.2-1.5-87.8-23.7-120.6c-23.9-35.6-51-49.6-111.8-58L160.5,47.2
	c-4.5-0.6-8.8,2.6-9.4,7.1L132.4,190l-2.4,13.3c-6.5,47.2,1.4,87.8,23.9,120.8c23.8,35.6,51.3,49.7,112.7,58.1l149.6,22
	C420.7,404.9,424.8,401.7,425.5,397.2L425.5,397.2z"/>
<g id="_x3C_H_x3E_">
	<path class="st2" d="M294.1,263c-0.9,4.8,0.5,6.5,3.4,7.8C296.9,268,295.7,265.4,294.1,263z"/>
	<path class="st2" d="M324.7,187.9c0.2,0,5.9-13.1,5.9-13.1s8.1-16.1,17.8-20.6c10.2-3.1,19.2,6.3,19.9,15
		c-20,3.9-38.5,43.8-45.5,62.9c-2.2,6-8.5,18.3-5.6,26.2l0,0c2.3-0.9,29.9-47.5,41.7-44.2c3.2,0.9,8.1,5.3,8.7,8.7
		c-2.9,10.4-5.8,20.8-8.7,31.2c-0.2,9.3-0.4,18.7-0.6,28c-25.1-0.2-14.6-19.6-19.9-36.1c-1.5,1.3-2.9,2.5-4.4,3.7
		c-1.2,3.2-13.1,28.1-15,29.3c-3.8,1.4-7.5-0.8-10-2.5c-4.8-3.2-8.9-4.3-11.6-5.6c-0.7-2.8-1.8-5.4-3.4-7.8c0.9-5,30.7-74,30.9-75.6
		c0-0.1,0,0-0.1,0"/>
</g>
<path id="_x3C_Trait_x3E_" class="st2" d="M280.8,304.5l-28.2,6.4c-17.2,5.1-28.2,7-17.7,17.2c2.9,2.8,4.5,5.4,10.1,6.8
	c1.8,0.7,1.2,0.6,4.6,0.9c12-11.1,77.4-25.4,114.7-25.3C361.5,293.4,302.2,299.5,280.8,304.5z"/>
<path class="st2" d="M321.3,170.8c0,0.1-0.1,0.2-0.2,0.3c0,0,0,0.1,0,0.1L321.3,170.8z"/>
<path id="_x3C_S_x3E_" class="st2" d="M282.1,251.9C282,251.9,282,251.9,282.1,251.9c-1.1-4.4-1.3-4.3-3.3-7.7
	c-9.9-15.1-36-22.2-54.1-27.7c-10.7-3.3-23.4-7.9-35.9-8.5c-0.2-0.8-0.4-1.6-0.6-2.4c12.5-25.3,45.7-41.7,72.5-53
	c9.4-4,22.1-10.6,34.7-7.3c1.2,0.6,1.2,0.6,1.2,2.4c-7.5,58.9-29.7,63.2-38,57.5c-0.8,0.5-0.8,0.5-1.6,0.9
	c1.5,9.8,5.6,14.9,12.2,19.5c11.5-1.4,24.3-18.9,26.8-26.8c8-17.9,11.8-26.2,12.8-28.1c0,0,0,0,0,0c12.9-49.7-14.7-50-51.2-38.2
	c-28.6,8.7-82.2,36.1-85.2,67.6c-4,40.8,86.7,25.9,94.4,51.1c-8.7,11.7-38.5,18.1-56.6,12.2c-3.6-5.2-1.2-7.5,1.7-12
	c-0.7-0.9-0.7-0.9-1.5-1.7c-4.1,1.6-6,2.7-8.2,5.8c-6.1,30.2,33,37.1,55.9,27.7c5.7-3.2,11.5-6.9,17.2-9.4
	C285.4,267,283.8,263.4,282.1,251.9z"/>
<path id="_x3C_Point_x3E_" class="st2" d="M374.2,256.2c5.2,0.2,7.6,1.6,10.6,3.7c-1.1,7.9-4.8,16.8-7.5,25.5
	c-5.5,0.1-8.9-1.3-10.6-5c-2.7-8.9,0.8-18.8,4.4-23.7C372.1,256.6,373.1,256.4,374.2,256.2z"/>
</svg>
