<svg xmlns="http://www.w3.org/2000/svg" xmlns:xlink="http://www.w3.org/1999/xlink" viewBox="0 0 132.75 148.12"><defs><style>.cls-1{fill:url(#linear-gradient);}.cls-2{opacity:0.24;fill:url(#Dégradé_sans_nom_76);}.cls-3,.cls-4{fill:#fff;stroke:#fff;}.cls-3{stroke-miterlimit:10;stroke-width:2px;}</style><linearGradient id="linear-gradient" y1="74.06" x2="132.75" y2="74.06" gradientUnits="userSpaceOnUse"><stop offset="0" stop-color="#1c75bc"/><stop offset="1" stop-color="#042c45"/></linearGradient><linearGradient id="Dégradé_sans_nom_76" x1="66.37" y1="74.06" x2="124.74" y2="74.06" gradientUnits="userSpaceOnUse"><stop offset="0" stop-color="#1c75bc"/><stop offset="0.15" stop-color="#1a6fb3"/><stop offset="0.39" stop-color="#15609a"/><stop offset="0.7" stop-color="#0d4872"/><stop offset="1" stop-color="#042c45"/></linearGradient></defs><title>sh-logo</title><g id="Calque_2" data-name="Calque 2"><g id="Calque_1-2" data-name="Calque 1"><path class="cls-1" d="M124.41,30.92,74.72,2.23A16.69,16.69,0,0,0,58,2.23L8.34,30.92A16.68,16.68,0,0,0,0,45.37v57.38A16.68,16.68,0,0,0,8.34,117.2L58,145.89a16.69,16.69,0,0,0,16.68,0l49.69-28.69a16.67,16.67,0,0,0,8.34-14.45V45.37A16.68,16.68,0,0,0,124.41,30.92Z"/><path class="cls-2" d="M120.41,37.86,70.71,9.17A8.69,8.69,0,0,0,66.37,8V140.12A8.68,8.68,0,0,0,70.71,139l49.7-28.69a8.7,8.7,0,0,0,4.34-7.51V45.37A8.7,8.7,0,0,0,120.41,37.86Z"/><path class="cls-3" d="M114.24,40.76q0,7.54-12.06,20.76-5.11,5.57-18.33,17.63Q80.72,81.83,75,87.62a33,33,0,0,0-2.49,5.51,24.49,24.49,0,0,0-1.8,5.63.48.48,0,0,1,.12.35q2.55-3.36,8.47-9.86,6.5-7.19,8.93-8.93a3.46,3.46,0,0,1,1.86-.7q2.67,0,2.67,2.44Q87.22,94.12,87.22,97.6q0,4.06,3.6,4.06,3.36,0,7-3.36A36.59,36.59,0,0,0,103.22,92q2.44-3.36,2.78-3.36t.35.7a4.61,4.61,0,0,1-.58,2Q98,104.45,89.3,104.45q-6.26,0-6.26-7.54A35.7,35.7,0,0,1,85.59,85a79.18,79.18,0,0,0-7.95,8.64,75.86,75.86,0,0,0-6.9,9.57,5,5,0,0,1-3,.93q-3.13,0-3.13-1.51,0-2.67,5-13.8A239.57,239.57,0,0,1,86.17,57.46q14.15-22.39,23.08-22.39Q114.24,35.08,114.24,40.76Zm-4.06.93q0-3.83-2.55-3.83-6.26,0-17.75,19.26A198.51,198.51,0,0,0,76.78,83q7.54-4.87,19.84-19Q110.18,48.19,110.18,41.69Z"/><path class="cls-3" d="M117.49,102.24q0,2.78-2.9,2.78-3.13,0-3.13-2.78t3.13-2.78Q117.49,99.46,117.49,102.24Z"/><path class="cls-3" d="M7.63,106a16.14,16.14,0,0,1,2.25-7.59q2.37-4.55,5.36-4.55,1.12,0,1.12,1a34.07,34.07,0,0,1-2.18,3A9.06,9.06,0,0,0,12,103.08q0,5.52,8.73,5.52a47.18,47.18,0,0,0,11-1.52A72.18,72.18,0,0,0,45.3,102q9.86-5,9.85-9.8,0-4.42-11.48-8-20-6.49-21.46-7-11.6-5.25-11.6-13.52,0-5.52,5.36-11.18,8-8.56,22.46-14.08A70.58,70.58,0,0,1,64,33.11q18.09,0,18.09,11.32,0,9.94-11.23,19Q60.4,71.89,51,71.89q-4,0-4-2.9,0-7.87,12.48-15.73,3.37-2.21,4.62-2.21c.67,0,1,.18,1,.55q0,1-2.62,2.62-7,4.28-9.85,10.07a6.2,6.2,0,0,0-.87,2.35c0,.46.33.69,1,.69q7.49,0,16.47-6.49Q79,53.67,79,45.81q0-7.45-15.22-7.45-11.6,0-25.82,4.55Q21,48.29,16.23,56.3a9,9,0,0,0-1.37,4.55q0,8.83,20.83,15.59,4.37,1.38,8.86,2.76A51.26,51.26,0,0,1,53,82.93q5.24,3.31,5.24,8.28,0,9.52-15.1,16.28-12.47,5.66-22.58,5.66Q7.63,113.15,7.63,106Z"/><path class="cls-4" d="M88,113.92q.27,1.18-4.08,2.34l-9,2.57q-4.9,1.82-15.51,5.1l-.84.19q-3.34.93-3.64-.42-.53-2.36,4.95-5.55a23,23,0,0,1,7.36-2.73,123.92,123.92,0,0,1,16-2.2Q87.76,112.91,88,113.92Z"/></g></g></svg>