<?xml version="1.0" encoding="utf-8"?>
<!-- Generator: Adobe Illustrator 21.0.0, SVG Export Plug-In . SVG Version: 6.00 Build 0)  -->
<svg version="1.1" id="Layer_1" xmlns="https://www.w3.org/2000/svg" xmlns:xlink="https://www.w3.org/1999/xlink" x="0px" y="0px"
	 viewBox="0 0 571.9 438" style="enable-background:new 0 0 571.9 438;" xml:space="preserve">
<style type="text/css">
	.st0{fill-rule:evenodd;clip-rule:evenodd;fill:#FFFFFF;}
</style>
<g id="_x3C_H_x3E_">
	<path class="st0" d="M335.2,251.8c-1.8,9.7,0.9,12.9,6.8,15.7C340.7,261.8,338.3,256.6,335.2,251.8z"/>
	<path class="st0" d="M396.5,101.3c0.4,0,11.7-26.2,11.7-26.2s16.3-32.2,35.7-41.2c20.3-6.2,38.4,12.7,39.9,30
		c-40.1,7.8-77.1,87.7-91.1,126c-4.4,12.1-17,36.6-11.2,52.4l0,0c4.6-1.7,60-95.1,83.6-88.6c6.3,1.7,16.2,10.6,17.5,17.5
		c-5.8,20.8-11.6,41.6-17.5,62.4c-0.4,18.7-0.8,37.4-1.3,56.2c-50.2-0.4-29.2-39.3-39.9-72.4c-2.9,2.5-5.8,5-8.7,7.5
		c-2.4,6.3-26.3,56.3-30,58.7c-7.7,2.8-15-1.7-20-5c-9.7-6.4-17.8-8.6-23.2-11.1c-1.3-5.6-3.7-10.9-6.8-15.7
		c1.8-10,61.5-148.3,61.9-151.5c0-0.1,0-0.1-0.1,0.1"/>
</g>
<path id="_x3C_Trait_x3E_" class="st0" d="M300.7,346.9l-60.1,18.6c-36.7,14.7-60,20.4-37.7,50.1c6.1,8,9.6,15.8,21.6,20
	c3.8,2,2.6,1.7,9.7,2.5c25.6-32.3,165.1-74.2,244.4-73.7C472.8,314.6,346.5,332.3,300.7,346.9z"/>
<path id="_x3C_S_x3E_" class="st0" d="M274.9,252.1c0-0.1-0.1-0.1-0.1-0.1c-2.1-8.7-2.4-8.5-6.6-15.3
	c-19.8-30.3-72.1-44.4-108.5-55.5c-21.4-6.6-46.9-15.8-72-17.1c-0.4-1.7-0.8-3.3-1.2-4.9c25.1-50.8,91.6-83.5,145.2-106.1
	c18.8-7.9,44.2-21.2,69.5-14.6c2.4,1.2,2.4,1.2,2.5,4.9c-15,118.1-59.5,126.6-76.2,115.2c-1.5,0.9-1.6,1-3.1,1.9
	c2.9,19.6,11.1,29.8,24.4,39.1c23.1-2.8,48.8-37.9,53.7-53.7c16.1-35.8,23.6-52.4,25.7-56.3c0,0,0,0,0-0.1
	c25.9-99.6-29.5-100.2-102.5-76.6C168.3,30.1,61,85,54.9,148.2c-8,81.7,173.7,51.8,189.1,102.5c-17.4,23.5-77,36.2-113.4,24.4
	c-7.3-10.3-2.4-15,3.4-24c-1.5-1.8-1.4-1.7-2.9-3.5c-8.1,3.3-12,5.5-16.4,11.7c-12.2,60.4,66.1,74.4,112,55.4
	c11.5-6.4,23-13.8,34.5-18.8C281.6,282.2,278.4,275,274.9,252.1z"/>
<path id="_x3C_Point_x3E_" class="st0" d="M495.5,238.1c10.4,0.4,15.2,3.3,21.2,7.5c-2.2,15.9-9.7,33.7-15,51.2
	c-11.1,0.2-17.7-2.5-21.2-10c-5.4-17.8,1.7-37.8,8.7-47.4C491.4,238.9,493.5,238.5,495.5,238.1z"/>
</svg>
